<svg width="3874" height="1026" viewBox="0 0 3874 1026" fill="none" xmlns="http://www.w3.org/2000/svg">
<path d="M1525.2 447.527C1525.2 472.918 1519.05 494.988 1506.74 513.738C1494.44 532.488 1476.47 546.941 1452.84 557.098C1429.4 567.254 1400.88 572.332 1367.29 572.332C1352.45 572.332 1337.89 571.355 1323.64 569.402C1309.57 567.449 1296 564.617 1282.91 560.906C1270.02 557 1257.72 552.215 1246 546.551V462.176C1266.31 471.16 1287.41 479.266 1309.28 486.492C1331.16 493.719 1352.84 497.332 1374.32 497.332C1389.16 497.332 1401.08 495.379 1410.06 491.473C1419.24 487.566 1425.88 482.195 1429.98 475.359C1434.09 468.523 1436.14 460.711 1436.14 451.922C1436.14 441.18 1432.52 432 1425.3 424.383C1418.07 416.766 1408.11 409.637 1395.41 402.996C1382.91 396.355 1368.75 389.227 1352.93 381.609C1342.97 376.922 1332.13 371.258 1320.41 364.617C1308.7 357.781 1297.56 349.48 1287.02 339.715C1276.47 329.949 1267.78 318.133 1260.94 304.266C1254.3 290.203 1250.98 273.406 1250.98 253.875C1250.98 228.289 1256.84 206.414 1268.56 188.25C1280.28 170.086 1296.98 156.219 1318.66 146.648C1340.53 136.883 1366.31 132 1396 132C1418.27 132 1439.46 134.637 1459.57 139.91C1479.89 144.988 1501.08 152.41 1523.15 162.176L1493.85 232.781C1474.12 224.773 1456.45 218.621 1440.82 214.324C1425.2 209.832 1409.28 207.586 1393.07 207.586C1381.74 207.586 1372.07 209.441 1364.07 213.152C1356.06 216.668 1350 221.746 1345.9 228.387C1341.8 234.832 1339.75 242.352 1339.75 250.945C1339.75 261.102 1342.68 269.695 1348.54 276.727C1354.59 283.562 1363.58 290.203 1375.49 296.648C1387.6 303.094 1402.64 310.613 1420.61 319.207C1442.48 329.559 1461.14 340.398 1476.57 351.727C1492.19 362.859 1504.2 376.043 1512.6 391.277C1521 406.316 1525.2 425.066 1525.2 447.527Z" fill="#78777A"/>
<path d="M1736.14 314.52L1825.49 138.152H1923.34L1781.25 399.773V566.473H1691.02V402.703L1548.93 138.152H1647.37L1736.14 314.52Z" fill="#78777A"/>
<path d="M2357.23 566.473H2241.8L2055.47 242.449H2052.84C2053.62 255.926 2054.3 269.5 2054.89 283.172C2055.47 296.844 2056.06 310.516 2056.64 324.188C2057.23 337.664 2057.82 351.238 2058.4 364.91V566.473H1977.25V138.152H2091.8L2277.84 458.953H2279.89C2279.5 445.672 2279.01 432.488 2278.42 419.402C2277.84 406.316 2277.25 393.23 2276.66 380.145C2276.27 367.059 2275.88 353.973 2275.49 340.887V138.152H2357.23V566.473Z" fill="#78777A"/>
<path d="M2630.57 566.473H2539.75V213.738H2423.44V138.152H2746.88V213.738H2630.57V566.473Z" fill="#78777A"/>
<path d="M3075 566.473L3043.95 464.52H2887.8L2856.74 566.473H2758.89L2910.06 136.395H3021.1L3172.86 566.473H3075ZM3022.27 388.348L2991.21 288.738C2989.26 282.098 2986.62 273.602 2983.3 263.25C2980.18 252.703 2976.96 242.059 2973.64 231.316C2970.51 220.379 2967.97 210.906 2966.02 202.898C2964.07 210.906 2961.33 220.867 2957.82 232.781C2954.5 244.5 2951.27 255.633 2948.15 266.18C2945.02 276.727 2942.78 284.246 2941.41 288.738L2910.65 388.348H3022.27Z" fill="#78777A"/>
<path d="M3573.34 566.473H3469.63L3370.02 404.461L3270.41 566.473H3173.15L3315.24 345.574L3182.23 138.152H3282.43L3374.71 292.254L3465.24 138.152H3563.09L3428.62 350.555L3573.34 566.473Z" fill="#78777A"/>
<path d="M3873.93 566.473H3627.25V138.152H3873.93V212.566H3718.07V306.609H3863.09V381.023H3718.07V491.473H3873.93V566.473Z" fill="#78777A"/>
<path d="M1400.75 890.473H1277.41V676.312H1400.75V713.52H1322.82V760.541H1395.33V797.748H1322.82V852.973H1400.75V890.473Z" fill="#78777A"/>
<path d="M1618.72 890.473H1566.87L1517.06 809.467L1467.26 890.473H1418.62L1489.67 780.023L1423.17 676.312H1473.26L1519.41 753.363L1564.67 676.312H1613.6L1546.36 782.514L1618.72 890.473Z" fill="#78777A"/>
<path d="M1714.08 676.312C1741.72 676.312 1761.89 682.27 1774.58 694.184C1787.28 706 1793.62 722.309 1793.62 743.109C1793.62 752.484 1792.21 761.469 1789.38 770.062C1786.54 778.559 1781.91 786.127 1775.46 792.768C1769.11 799.408 1760.62 804.682 1749.97 808.588C1739.33 812.396 1726.19 814.301 1710.57 814.301H1691.09V890.473H1645.68V676.312H1714.08ZM1711.74 713.52H1691.09V777.094H1706.03C1714.52 777.094 1721.9 775.971 1728.15 773.725C1734.4 771.479 1739.23 767.963 1742.65 763.178C1746.07 758.393 1747.78 752.24 1747.78 744.721C1747.78 734.174 1744.85 726.361 1738.99 721.283C1733.13 716.107 1724.04 713.52 1711.74 713.52Z" fill="#78777A"/>
<path d="M1896.46 676.312C1915.89 676.312 1931.91 678.656 1944.5 683.344C1957.2 688.031 1966.62 695.111 1972.78 704.584C1978.93 714.057 1982 726.02 1982 740.473C1982 750.238 1980.15 758.783 1976.44 766.107C1972.73 773.432 1967.84 779.633 1961.79 784.711C1955.73 789.789 1949.19 793.939 1942.16 797.162L2005.15 890.473H1954.76L1903.63 808.295H1879.46V890.473H1834.05V676.312H1896.46ZM1893.23 713.52H1879.46V771.381H1894.11C1909.15 771.381 1919.89 768.891 1926.34 763.91C1932.88 758.832 1936.15 751.41 1936.15 741.645C1936.15 731.488 1932.64 724.262 1925.61 719.965C1918.67 715.668 1907.88 713.52 1893.23 713.52Z" fill="#78777A"/>
<path d="M2155.44 890.473H2032.1V676.312H2155.44V713.52H2077.51V760.541H2150.02V797.748H2077.51V852.973H2155.44V890.473Z" fill="#78777A"/>
<path d="M2326.68 831C2326.68 843.695 2323.61 854.73 2317.45 864.105C2311.3 873.48 2302.32 880.707 2290.5 885.785C2278.78 890.863 2264.52 893.402 2247.73 893.402C2240.3 893.402 2233.03 892.914 2225.9 891.938C2218.87 890.961 2212.08 889.545 2205.54 887.689C2199.09 885.736 2192.94 883.344 2187.08 880.512V838.324C2197.24 842.816 2207.79 846.869 2218.72 850.482C2229.66 854.096 2240.5 855.902 2251.24 855.902C2258.66 855.902 2264.62 854.926 2269.11 852.973C2273.7 851.02 2277.02 848.334 2279.07 844.916C2281.12 841.498 2282.15 837.592 2282.15 833.197C2282.15 827.826 2280.34 823.236 2276.73 819.428C2273.12 815.619 2268.14 812.055 2261.79 808.734C2255.54 805.414 2248.46 801.85 2240.55 798.041C2235.57 795.697 2230.15 792.865 2224.29 789.545C2218.43 786.127 2212.86 781.977 2207.59 777.094C2202.32 772.211 2197.97 766.303 2194.55 759.369C2191.23 752.338 2189.57 743.939 2189.57 734.174C2189.57 721.381 2192.5 710.443 2198.36 701.361C2204.22 692.279 2212.57 685.346 2223.41 680.561C2234.35 675.678 2247.24 673.236 2262.08 673.236C2273.21 673.236 2283.81 674.555 2293.87 677.191C2304.03 679.73 2314.62 683.441 2325.66 688.324L2311.01 723.627C2301.14 719.623 2292.31 716.547 2284.49 714.398C2276.68 712.152 2268.72 711.029 2260.62 711.029C2254.95 711.029 2250.12 711.957 2246.12 713.812C2242.11 715.57 2239.08 718.109 2237.03 721.43C2234.98 724.652 2233.96 728.412 2233.96 732.709C2233.96 737.787 2235.42 742.084 2238.35 745.6C2241.38 749.018 2245.87 752.338 2251.83 755.561C2257.88 758.783 2265.4 762.543 2274.39 766.84C2285.32 772.016 2294.65 777.436 2302.37 783.1C2310.18 788.666 2316.18 795.258 2320.38 802.875C2324.58 810.395 2326.68 819.77 2326.68 831Z" fill="#78777A"/>
<path d="M2491.92 831C2491.92 843.695 2488.84 854.73 2482.69 864.105C2476.54 873.48 2467.55 880.707 2455.73 885.785C2444.02 890.863 2429.76 893.402 2412.96 893.402C2405.54 893.402 2398.26 892.914 2391.13 891.938C2384.1 890.961 2377.32 889.545 2370.77 887.689C2364.33 885.736 2358.18 883.344 2352.32 880.512V838.324C2362.47 842.816 2373.02 846.869 2383.96 850.482C2394.89 854.096 2405.73 855.902 2416.48 855.902C2423.9 855.902 2429.86 854.926 2434.35 852.973C2438.94 851.02 2442.26 848.334 2444.31 844.916C2446.36 841.498 2447.38 837.592 2447.38 833.197C2447.38 827.826 2445.58 823.236 2441.96 819.428C2438.35 815.619 2433.37 812.055 2427.02 808.734C2420.77 805.414 2413.69 801.85 2405.78 798.041C2400.8 795.697 2395.38 792.865 2389.52 789.545C2383.66 786.127 2378.1 781.977 2372.82 777.094C2367.55 772.211 2363.21 766.303 2359.79 759.369C2356.47 752.338 2354.81 743.939 2354.81 734.174C2354.81 721.381 2357.74 710.443 2363.6 701.361C2369.46 692.279 2377.8 685.346 2388.64 680.561C2399.58 675.678 2412.47 673.236 2427.32 673.236C2438.45 673.236 2449.04 674.555 2459.1 677.191C2469.26 679.73 2479.86 683.441 2490.89 688.324L2476.24 723.627C2466.38 719.623 2457.54 716.547 2449.73 714.398C2441.92 712.152 2433.96 711.029 2425.85 711.029C2420.19 711.029 2415.35 711.957 2411.35 713.812C2407.35 715.57 2404.32 718.109 2402.27 721.43C2400.22 724.652 2399.19 728.412 2399.19 732.709C2399.19 737.787 2400.66 742.084 2403.59 745.6C2406.61 749.018 2411.11 752.338 2417.06 755.561C2423.12 758.783 2430.64 762.543 2439.62 766.84C2450.56 772.016 2459.88 777.436 2467.6 783.1C2475.41 788.666 2481.42 795.258 2485.62 802.875C2489.82 810.395 2491.92 819.77 2491.92 831Z" fill="#78777A"/>
<rect y="273.616" width="800" height="800" rx="150" transform="rotate(-20 0 273.616)" stroke="#78777A" stroke-width="70"/>
<rect x="273.617" width="800" height="800" rx="150" transform="rotate(20 273.617 0)" stroke="#78777A" stroke-width="70"/>
<path d="M284.973 578.07L408.02 525.58L284.973 474.066V401.557L503.479 504.584V546.576L284.973 650.092V578.07ZM751.037 650.092L532.531 546.576V504.584L751.037 401.557V474.066L627.99 525.58L751.037 578.07V650.092Z" fill="#78777A"/>
</svg>
